<svg xmlns="http://www.w3.org/2000/svg" fill="none" viewBox="0 0 256 256"><path d="M0 0h256v256H0z"/><path fill="#1A1A1A" d="M128 256c70.692 0 128-57.308 128-128C256 57.308 198.692 0 128 0 57.308 0 0 57.308 0 128c0 70.692 57.308 128 128 128Z"/><path fill="#6360E1" d="M163.972 162.049a102.86 102.86 0 0 0 16.433-20.469 79.149 79.149 0 0 0 9.609-22.422 53.872 53.872 0 0 0 .833-21.878 36.13 36.13 0 0 0-10.122-19.22 36.133 36.133 0 0 0-18.867-10.698 50.736 50.736 0 0 0-21.717.288 77.586 77.586 0 0 0-22.423 9.194A112.462 112.462 0 0 0 80.337 113.2a81.9 81.9 0 0 0-10.154 22.615 51.248 51.248 0 0 0-1.218 22.23 35.97 35.97 0 0 0 10.09 19.219 36.33 36.33 0 0 0 18.867 10.731 50.953 50.953 0 0 0 22.423-.545 81.901 81.901 0 0 0 22.935-9.417 111.147 111.147 0 0 0 20.692-15.984Z"/><path fill="#fff" d="M178.228 127.292a104.817 104.817 0 0 0-3.204-26.074 77.795 77.795 0 0 0-9.417-22.422 52.696 52.696 0 0 0-15.055-15.824 36.196 36.196 0 0 0-20.821-6.118 36.134 36.134 0 0 0-20.821 6.118 50.62 50.62 0 0 0-14.895 15.792 77.33 77.33 0 0 0-9 22.422 113.233 113.233 0 0 0 0 52.148 81.516 81.516 0 0 0 9.192 22.999 51.057 51.057 0 0 0 15.12 16.369 36.033 36.033 0 0 0 20.82 6.086 36.171 36.171 0 0 0 20.821-6.086 50.602 50.602 0 0 0 15.087-16.369 81.542 81.542 0 0 0 9.194-22.999 111 111 0 0 0 2.979-26.042Z" opacity=".7"/><path fill="#fff" d="M163.717 93.4a105.049 105.049 0 0 0-20.757-16.015 78.577 78.577 0 0 0-22.422-9.226 53.013 53.013 0 0 0-21.846-.512 36.291 36.291 0 0 0-19.027 10.41 36.068 36.068 0 0 0-10.41 19.22 50.352 50.352 0 0 0 .64 21.717 76.672 76.672 0 0 0 9.61 22.23 112.11 112.11 0 0 0 36.677 36.549 81.912 81.912 0 0 0 22.774 9.802 50.533 50.533 0 0 0 22.231.865 38.435 38.435 0 0 0 29.469-29.438 50.983 50.983 0 0 0-.897-22.23 82.38 82.38 0 0 0-9.77-22.775 111.502 111.502 0 0 0-16.272-20.596Z"/></svg>